<svg width="16" height="16" viewBox="0 0 16 16" fill="none" xmlns="http://www.w3.org/2000/svg">
<path d="M2 3.33333C2 2.97971 2.14048 2.64057 2.39052 2.39052C2.64057 2.14048 2.97971 2 3.33333 2H5.52C5.65986 2.00011 5.79615 2.0442 5.90957 2.12603C6.02299 2.20787 6.1078 2.3233 6.152 2.456L7.15067 5.45133C7.20127 5.60356 7.19528 5.76893 7.13381 5.9171C7.07234 6.06527 6.9595 6.1863 6.816 6.258L5.31133 7.01133C6.04888 8.64369 7.35631 9.95112 8.98867 10.6887L9.742 9.184C9.8137 9.0405 9.93473 8.92766 10.0829 8.86619C10.2311 8.80472 10.3964 8.79873 10.5487 8.84933L13.544 9.848C13.6768 9.89223 13.7923 9.97714 13.8742 10.0907C13.956 10.2043 14 10.3407 14 10.4807V12.6667C14 13.0203 13.8595 13.3594 13.6095 13.6095C13.3594 13.8595 13.0203 14 12.6667 14H12C6.47733 14 2 9.52267 2 4V3.33333Z" stroke="#C4C4C4" stroke-linecap="round" stroke-linejoin="round"/>
</svg>
