<svg width="16" height="16" viewBox="0 0 16 16" fill="none" xmlns="http://www.w3.org/2000/svg">
<path d="M2 5.33325L7.26 8.83992C7.47911 8.9861 7.7366 9.06412 8 9.06412C8.2634 9.06412 8.52089 8.9861 8.74 8.83992L14 5.33325M3.33333 12.6666H12.6667C13.0203 12.6666 13.3594 12.5261 13.6095 12.2761C13.8595 12.026 14 11.6869 14 11.3333V4.66659C14 4.31296 13.8595 3.97382 13.6095 3.72378C13.3594 3.47373 13.0203 3.33325 12.6667 3.33325H3.33333C2.97971 3.33325 2.64057 3.47373 2.39052 3.72378C2.14048 3.97382 2 4.31296 2 4.66659V11.3333C2 11.6869 2.14048 12.026 2.39052 12.2761C2.64057 12.5261 2.97971 12.6666 3.33333 12.6666Z" stroke="#C4C4C4" stroke-linecap="round" stroke-linejoin="round"/>
</svg>
