<svg width="84" height="84" viewBox="0 0 84 84" fill="none" xmlns="http://www.w3.org/2000/svg">
<path d="M59.5 70H77V63C76.9998 60.8179 76.3198 58.69 75.0545 56.9122C73.7891 55.1344 72.0013 53.795 69.9396 53.0801C67.8779 52.3653 65.6447 52.3106 63.5504 52.9236C61.4561 53.5366 59.6049 54.7868 58.254 56.5005M59.5 70H24.5M59.5 70V63C59.5 60.704 59.059 58.5095 58.254 56.5005M58.254 56.5005C56.9542 53.2524 54.7111 50.4681 51.814 48.5069C48.9168 46.5457 45.4985 45.4975 42 45.4975C38.5014 45.4975 35.0831 46.5457 32.186 48.5069C29.2888 50.4681 27.0457 53.2524 25.746 56.5005M24.5 70H7V63C7.00016 60.8179 7.68017 58.69 8.94551 56.9122C10.2109 55.1344 11.9986 53.795 14.0604 53.0801C16.1221 52.3653 18.3553 52.3106 20.4496 52.9236C22.5438 53.5366 24.3951 54.7868 25.746 56.5005M24.5 70V63C24.5 60.704 24.941 58.5095 25.746 56.5005M52.5 24.5C52.5 27.2848 51.3937 29.9555 49.4246 31.9246C47.4555 33.8938 44.7848 35 42 35C39.2152 35 36.5445 33.8938 34.5754 31.9246C32.6062 29.9555 31.5 27.2848 31.5 24.5C31.5 21.7152 32.6062 19.0445 34.5754 17.0754C36.5445 15.1062 39.2152 14 42 14C44.7848 14 47.4555 15.1062 49.4246 17.0754C51.3937 19.0445 52.5 21.7152 52.5 24.5ZM73.5 35C73.5 36.8565 72.7625 38.637 71.4497 39.9497C70.137 41.2625 68.3565 42 66.5 42C64.6435 42 62.863 41.2625 61.5502 39.9497C60.2375 38.637 59.5 36.8565 59.5 35C59.5 33.1435 60.2375 31.363 61.5502 30.0503C62.863 28.7375 64.6435 28 66.5 28C68.3565 28 70.137 28.7375 71.4497 30.0503C72.7625 31.363 73.5 33.1435 73.5 35ZM24.5 35C24.5 36.8565 23.7625 38.637 22.4497 39.9497C21.137 41.2625 19.3565 42 17.5 42C15.6435 42 13.863 41.2625 12.5502 39.9497C11.2375 38.637 10.5 36.8565 10.5 35C10.5 33.1435 11.2375 31.363 12.5502 30.0503C13.863 28.7375 15.6435 28 17.5 28C19.3565 28 21.137 28.7375 22.4497 30.0503C23.7625 31.363 24.5 33.1435 24.5 35Z" stroke="black" stroke-width="3" stroke-linecap="round" stroke-linejoin="round"/>
</svg>
