<svg width="84" height="84" viewBox="0 0 84 84" fill="none" xmlns="http://www.w3.org/2000/svg">
<path d="M20.125 59.5L10.5 66.5H73.5L63.875 59.5M17.5 59.5H66.5C68.3565 59.5 70.137 58.7625 71.4497 57.4497C72.7625 56.137 73.5 54.3565 73.5 52.5V17.5C73.5 15.6435 72.7625 13.863 71.4497 12.5503C70.137 11.2375 68.3565 10.5 66.5 10.5H17.5C15.6435 10.5 13.863 11.2375 12.5503 12.5503C11.2375 13.863 10.5 15.6435 10.5 17.5V52.5C10.5 54.3565 11.2375 56.137 12.5503 57.4497C13.863 58.7625 15.6435 59.5 17.5 59.5Z" stroke="black" stroke-width="3" stroke-linecap="round" stroke-linejoin="round"/>
</svg>
